C:\Users\u0150099\Documents\master_thesis\3dpredictsim\Results\Exo\Pog_s1_bCst_tanh100_PF_Natali2010_x10_ls150_MT_k300_MTP_T1_spx10_ig24_act_TTC_GRF.mot
nRows=22
nColumns=19

name C:\Users\u0150099\Documents\master_thesis\3dpredictsim\Results\Exo\Pog_s1_bCst_tanh100_PF_Natali2010_x10_ls150_MT_k300_MTP_T1_spx10_ig24_act_TTC_GRF.mot
datacolumns 19
datarows 22
range 0.0000000000 0.2637684733
endheader
time 	ground_force_vx	ground_force_vy	ground_force_vz	ground_force_px	ground_force_py	ground_force_pz	1_ground_force_vx	1_ground_force_vy	1_ground_force_vz	1_ground_force_px	1_ground_force_py	1_ground_force_pz	ground_torque_x	ground_torque_y	ground_torque_z	1_ground_torque_x	1_ground_torque_y	1_ground_torque_z
        0.0000000000	      -54.8575128449	       42.3833408168	        9.2694377701	        0.2333357867	        0.0000000000	        0.0514816808	      129.8035203854	      484.4134613869	       -1.6664944175	       -0.3506118724	        0.0000000000	       -0.0382808623	        0.0000000000	        0.0000000000	        0.0000000000	        0.0000000000	        0.0000000000	        0.0000000000	
        0.0125604035	     -131.0647609802	      130.4631611057	       28.5956773264	        0.2412633071	        0.0000000000	        0.0500490752	       98.8352644841	      375.8919891279	       -2.5926061399	       -0.3447749866	        0.0000000000	       -0.0354592655	        0.0000000000	        0.0000000000	        0.0000000000	        0.0000000000	        0.0000000000	        0.0000000000	
        0.0251208070	      -75.5925022680	      563.6761467771	      -12.3007733947	        0.2442612990	        0.0000000000	        0.0495328748	       72.3358394502	      275.8180922376	       -2.5704690830	       -0.3385678751	        0.0000000000	       -0.0324418875	        0.0000000000	        0.0000000000	        0.0000000000	        0.0000000000	        0.0000000000	        0.0000000000	
        0.0376812105	     -133.0871045375	      717.0081426979	       -9.0915112662	        0.2462209556	        0.0000000000	        0.0494280762	       51.6899528910	      209.4690333547	      -11.2516672467	       -0.3352300765	        0.0000000000	       -0.0310111150	        0.0000000000	        0.0000000000	        0.0000000000	        0.0000000000	        0.0000000000	        0.0000000000	
        0.0502416140	     -153.7134174956	      738.7055960727	       -3.7520711756	        0.2487797163	        0.0000000000	        0.0494413751	       37.8963670342	      150.4084354982	      -19.7192440288	       -0.3345594100	        0.0000000000	       -0.0311131392	        0.0000000000	        0.0000000000	        0.0000000000	        0.0000000000	        0.0000000000	        0.0000000000	
        0.0628020174	     -142.6410712368	      741.6827523934	       -4.1857891680	        0.2520601185	        0.0000000000	        0.0497042356	       18.9927995341	       83.2578353292	      -17.7249454604	       -0.3334501972	        0.0000000000	       -0.0309073827	        0.0000000000	        0.0000000000	        0.0000000000	        0.0000000000	        0.0000000000	        0.0000000000	
        0.0753624209	     -135.0628634720	      752.3492560748	       -8.2327809862	        0.2559096334	        0.0000000000	        0.0502026781	       -4.3585937011	       24.6332316331	       -6.4615557214	       -0.3315021501	        0.0000000000	       -0.0303443027	        0.0000000000	        0.0000000000	        0.0000000000	        0.0000000000	        0.0000000000	        0.0000000000	
        0.0879228244	     -123.1587468685	      756.6688993731	      -10.7584641781	        0.2602095651	        0.0000000000	        0.0506934852	       -0.5119187978	        0.4823162203	       -0.0092606194	        0.0000000000	        0.0000000000	        0.0000000000	        0.0000000000	        0.0000000000	        0.0000000000	        0.0000000000	        0.0000000000	        0.0000000000	
        0.1004832279	     -114.1182249529	      747.8935826881	      -12.0458763611	        0.2660995401	        0.0000000000	        0.0510809597	        0.0274804911	       -0.0217404877	       -0.0007815495	        0.0000000000	        0.0000000000	        0.0000000000	        0.0000000000	        0.0000000000	        0.0000000000	        0.0000000000	        0.0000000000	        0.0000000000	
        0.1130436314	     -107.6851906850	      734.3382628008	      -14.2939893705	        0.2735003244	        0.0000000000	        0.0513542002	       -0.0125302430	        0.0085573563	        0.0005566477	        0.0000000000	        0.0000000000	        0.0000000000	        0.0000000000	        0.0000000000	        0.0000000000	        0.0000000000	        0.0000000000	        0.0000000000	
        0.1256040349	      -99.7207420554	      707.4124756799	      -15.3717939350	        0.2805883675	        0.0000000000	        0.0514900451	       -0.0206360238	        0.0126184969	        0.0010606266	        0.0000000000	        0.0000000000	        0.0000000000	        0.0000000000	        0.0000000000	        0.0000000000	        0.0000000000	        0.0000000000	        0.0000000000	
        0.1381644384	      -90.1105481449	      674.6803442137	      -15.7353464565	        0.2867392180	        0.0000000000	        0.0515541017	       -0.0089934051	        0.0050496064	        0.0004750934	        0.0000000000	        0.0000000000	        0.0000000000	        0.0000000000	        0.0000000000	        0.0000000000	        0.0000000000	        0.0000000000	        0.0000000000	
        0.1507248419	      -80.1396419449	      644.3672174344	      -16.4047481167	        0.2922728447	        0.0000000000	        0.0516214826	       -0.0040180682	        0.0021108296	        0.0002180619	        0.0000000000	        0.0000000000	        0.0000000000	        0.0000000000	        0.0000000000	        0.0000000000	        0.0000000000	        0.0000000000	        0.0000000000	
        0.1632852454	      -70.5227403211	      619.7587751999	      -16.9111886758	        0.2974541329	        0.0000000000	        0.0517418083	       -0.0022812375	        0.0011392391	        0.0001237199	        0.0000000000	        0.0000000000	        0.0000000000	        0.0000000000	        0.0000000000	        0.0000000000	        0.0000000000	        0.0000000000	        0.0000000000	
        0.1758456488	      -61.6329398926	      601.0402564038	      -17.5127452941	        0.3023664321	        0.0000000000	        0.0519343336	       -0.0017701648	        0.0008485979	        0.0000959873	        0.0000000000	        0.0000000000	        0.0000000000	        0.0000000000	        0.0000000000	        0.0000000000	        0.0000000000	        0.0000000000	        0.0000000000	
        0.1884060523	      -53.8397339791	      586.9988241373	      -18.2952807285	        0.3070321526	        0.0000000000	        0.0522009741	       -0.0018788077	        0.0008698004	        0.0001016788	        0.0000000000	        0.0000000000	        0.0000000000	        0.0000000000	        0.0000000000	        0.0000000000	        0.0000000000	        0.0000000000	        0.0000000000	
        0.2009664558	      -46.8601252525	      576.9283926559	      -18.8181414468	        0.3114264345	        0.0000000000	        0.0525363913	       -0.0026518036	        0.0011913008	        0.0001426812	        0.0000000000	        0.0000000000	        0.0000000000	        0.0000000000	        0.0000000000	        0.0000000000	        0.0000000000	        0.0000000000	        0.0000000000	
        0.2135268593	      -40.6130877443	      570.6413603936	      -19.1258139689	        0.3155170446	        0.0000000000	        0.0529331391	       -0.0047587834	        0.0020807372	        0.0002529476	        0.0000000000	        0.0000000000	        0.0000000000	        0.0000000000	        0.0000000000	        0.0000000000	        0.0000000000	        0.0000000000	        0.0000000000	
        0.2260872628	      -35.7854180556	      568.6978200509	      -19.1116953902	        0.3192252133	        0.0000000000	        0.0533852657	       -0.0103832370	        0.0044257784	        0.0005389151	        0.0000000000	        0.0000000000	        0.0000000000	        0.0000000000	        0.0000000000	        0.0000000000	        0.0000000000	        0.0000000000	        0.0000000000	
        0.2386476663	      -31.7309918449	      570.5380115092	      -19.0877817866	        0.3224556334	        0.0000000000	        0.0538900945	       -0.0257969808	        0.0107376768	        0.0012843217	        0.0000000000	        0.0000000000	        0.0000000000	        0.0000000000	        0.0000000000	        0.0000000000	        0.0000000000	        0.0000000000	        0.0000000000	
        0.2512080698	      -27.8915368153	      573.7184330012	      -19.4505372132	        0.3252114528	        0.0000000000	        0.0544384288	       -0.0673859981	        0.0274541775	        0.0031793155	        0.0000000000	        0.0000000000	        0.0000000000	        0.0000000000	        0.0000000000	        0.0000000000	        0.0000000000	        0.0000000000	        0.0000000000	
        0.2637684733	      -23.9239332942	      576.3456969592	      -20.0289447887	        0.3275533781	        0.0000000000	        0.0550180396	       -0.1704755312	        0.0681685097	        0.0075860186	        0.0000000000	        0.0000000000	        0.0000000000	        0.0000000000	        0.0000000000	        0.0000000000	        0.0000000000	        0.0000000000	        0.0000000000	
